<svg xmlns="http://www.w3.org/2000/svg" viewBox="0 0 1200 600" width="1200" height="600" role="img" aria-label="uxvisualengine domain model">
<title>uxvisualengine domain model</title>
<rect width="1200" height="600" fill="#0f1113"/>
<defs><linearGradient id="gd" x1="0" y1="0" x2="1" y2="1"><stop offset="0%" stop-color="#ff7a5c"/><stop offset="100%" stop-color="#9aa5b1"/></linearGradient></defs><rect x="96.00" y="150.00" width="60.00" height="34.00" rx="4.00" fill="#ff7a5c" opacity="0.18"/><rect x="162.00" y="150.00" width="60.00" height="34.00" rx="4.00" fill="#9aa5b1" opacity="0.27"/><rect x="228.00" y="150.00" width="60.00" height="34.00" rx="4.00" fill="#ffd8b1" opacity="0.36"/><rect x="294.00" y="150.00" width="60.00" height="34.00" rx="4.00" fill="#ff7a5c" opacity="0.45"/><rect x="360.00" y="150.00" width="60.00" height="34.00" rx="4.00" fill="#9aa5b1" opacity="0.53"/><rect x="426.00" y="150.00" width="60.00" height="34.00" rx="4.00" fill="#ffd8b1" opacity="0.62"/><rect x="492.00" y="150.00" width="60.00" height="34.00" rx="4.00" fill="#ff7a5c" opacity="0.71"/><rect x="558.00" y="150.00" width="60.00" height="34.00" rx="4.00" fill="#9aa5b1" opacity="0.18"/><rect x="624.00" y="150.00" width="60.00" height="34.00" rx="4.00" fill="#ffd8b1" opacity="0.27"/><rect x="690.00" y="150.00" width="60.00" height="34.00" rx="4.00" fill="#ff7a5c" opacity="0.36"/><rect x="756.00" y="150.00" width="60.00" height="34.00" rx="4.00" fill="#9aa5b1" opacity="0.45"/><rect x="822.00" y="150.00" width="60.00" height="34.00" rx="4.00" fill="#ffd8b1" opacity="0.53"/><rect x="888.00" y="150.00" width="60.00" height="34.00" rx="4.00" fill="#ff7a5c" opacity="0.62"/><rect x="954.00" y="150.00" width="60.00" height="34.00" rx="4.00" fill="#9aa5b1" opacity="0.71"/><rect x="1020.00" y="150.00" width="60.00" height="34.00" rx="4.00" fill="#ffd8b1" opacity="0.18"/><rect x="1086.00" y="150.00" width="60.00" height="34.00" rx="4.00" fill="#ff7a5c" opacity="0.27"/><rect x="96.00" y="190.00" width="60.00" height="34.00" rx="4.00" fill="#9aa5b1" opacity="0.36"/><rect x="162.00" y="190.00" width="60.00" height="34.00" rx="4.00" fill="#ffd8b1" opacity="0.45"/><rect x="228.00" y="190.00" width="60.00" height="34.00" rx="4.00" fill="#ff7a5c" opacity="0.53"/><rect x="294.00" y="190.00" width="60.00" height="34.00" rx="4.00" fill="#9aa5b1" opacity="0.62"/><rect x="360.00" y="190.00" width="60.00" height="34.00" rx="4.00" fill="#ffd8b1" opacity="0.71"/><rect x="426.00" y="190.00" width="60.00" height="34.00" rx="4.00" fill="#ff7a5c" opacity="0.18"/><rect x="492.00" y="190.00" width="60.00" height="34.00" rx="4.00" fill="#9aa5b1" opacity="0.27"/><rect x="558.00" y="190.00" width="60.00" height="34.00" rx="4.00" fill="#ffd8b1" opacity="0.36"/><rect x="624.00" y="190.00" width="60.00" height="34.00" rx="4.00" fill="#ff7a5c" opacity="0.45"/><rect x="690.00" y="190.00" width="60.00" height="34.00" rx="4.00" fill="#9aa5b1" opacity="0.53"/><rect x="756.00" y="190.00" width="60.00" height="34.00" rx="4.00" fill="#ffd8b1" opacity="0.62"/><rect x="822.00" y="190.00" width="60.00" height="34.00" rx="4.00" fill="#ff7a5c" opacity="0.71"/><rect x="888.00" y="190.00" width="60.00" height="34.00" rx="4.00" fill="#9aa5b1" opacity="0.18"/><rect x="954.00" y="190.00" width="60.00" height="34.00" rx="4.00" fill="#ffd8b1" opacity="0.27"/><rect x="1020.00" y="190.00" width="60.00" height="34.00" rx="4.00" fill="#ff7a5c" opacity="0.36"/><rect x="1086.00" y="190.00" width="60.00" height="34.00" rx="4.00" fill="#9aa5b1" opacity="0.45"/><rect x="96.00" y="230.00" width="60.00" height="34.00" rx="4.00" fill="#ffd8b1" opacity="0.53"/><rect x="162.00" y="230.00" width="60.00" height="34.00" rx="4.00" fill="#ff7a5c" opacity="0.62"/><rect x="228.00" y="230.00" width="60.00" height="34.00" rx="4.00" fill="#9aa5b1" opacity="0.71"/><rect x="294.00" y="230.00" width="60.00" height="34.00" rx="4.00" fill="#ffd8b1" opacity="0.18"/><rect x="360.00" y="230.00" width="60.00" height="34.00" rx="4.00" fill="#ff7a5c" opacity="0.27"/><rect x="426.00" y="230.00" width="60.00" height="34.00" rx="4.00" fill="#9aa5b1" opacity="0.36"/><rect x="492.00" y="230.00" width="60.00" height="34.00" rx="4.00" fill="#ffd8b1" opacity="0.45"/><rect x="558.00" y="230.00" width="60.00" height="34.00" rx="4.00" fill="#ff7a5c" opacity="0.53"/><rect x="624.00" y="230.00" width="60.00" height="34.00" rx="4.00" fill="#9aa5b1" opacity="0.62"/><rect x="690.00" y="230.00" width="60.00" height="34.00" rx="4.00" fill="#ffd8b1" opacity="0.71"/><rect x="756.00" y="230.00" width="60.00" height="34.00" rx="4.00" fill="#ff7a5c" opacity="0.18"/><rect x="822.00" y="230.00" width="60.00" height="34.00" rx="4.00" fill="#9aa5b1" opacity="0.27"/><rect x="888.00" y="230.00" width="60.00" height="34.00" rx="4.00" fill="#ffd8b1" opacity="0.36"/><rect x="954.00" y="230.00" width="60.00" height="34.00" rx="4.00" fill="#ff7a5c" opacity="0.45"/><rect x="1020.00" y="230.00" width="60.00" height="34.00" rx="4.00" fill="#9aa5b1" opacity="0.53"/><rect x="1086.00" y="230.00" width="60.00" height="34.00" rx="4.00" fill="#ffd8b1" opacity="0.62"/><rect x="96.00" y="270.00" width="60.00" height="34.00" rx="4.00" fill="#ff7a5c" opacity="0.71"/><rect x="162.00" y="270.00" width="60.00" height="34.00" rx="4.00" fill="#9aa5b1" opacity="0.18"/><rect x="228.00" y="270.00" width="60.00" height="34.00" rx="4.00" fill="#ffd8b1" opacity="0.27"/><rect x="294.00" y="270.00" width="60.00" height="34.00" rx="4.00" fill="#ff7a5c" opacity="0.36"/><rect x="360.00" y="270.00" width="60.00" height="34.00" rx="4.00" fill="#9aa5b1" opacity="0.45"/><rect x="426.00" y="270.00" width="60.00" height="34.00" rx="4.00" fill="#ffd8b1" opacity="0.53"/><rect x="492.00" y="270.00" width="60.00" height="34.00" rx="4.00" fill="#ff7a5c" opacity="0.62"/><rect x="558.00" y="270.00" width="60.00" height="34.00" rx="4.00" fill="#9aa5b1" opacity="0.71"/><rect x="624.00" y="270.00" width="60.00" height="34.00" rx="4.00" fill="#ffd8b1" opacity="0.18"/><rect x="690.00" y="270.00" width="60.00" height="34.00" rx="4.00" fill="#ff7a5c" opacity="0.27"/><rect x="756.00" y="270.00" width="60.00" height="34.00" rx="4.00" fill="#9aa5b1" opacity="0.36"/><rect x="822.00" y="270.00" width="60.00" height="34.00" rx="4.00" fill="#ffd8b1" opacity="0.45"/><rect x="888.00" y="270.00" width="60.00" height="34.00" rx="4.00" fill="#ff7a5c" opacity="0.53"/><rect x="954.00" y="270.00" width="60.00" height="34.00" rx="4.00" fill="#9aa5b1" opacity="0.62"/><rect x="1020.00" y="270.00" width="60.00" height="34.00" rx="4.00" fill="#ffd8b1" opacity="0.71"/><rect x="1086.00" y="270.00" width="60.00" height="34.00" rx="4.00" fill="#ff7a5c" opacity="0.18"/><rect x="96.00" y="310.00" width="60.00" height="34.00" rx="4.00" fill="#9aa5b1" opacity="0.27"/><rect x="162.00" y="310.00" width="60.00" height="34.00" rx="4.00" fill="#ffd8b1" opacity="0.36"/><rect x="228.00" y="310.00" width="60.00" height="34.00" rx="4.00" fill="#ff7a5c" opacity="0.45"/><rect x="294.00" y="310.00" width="60.00" height="34.00" rx="4.00" fill="#9aa5b1" opacity="0.53"/><rect x="360.00" y="310.00" width="60.00" height="34.00" rx="4.00" fill="#ffd8b1" opacity="0.62"/><rect x="426.00" y="310.00" width="60.00" height="34.00" rx="4.00" fill="#ff7a5c" opacity="0.71"/><rect x="492.00" y="310.00" width="60.00" height="34.00" rx="4.00" fill="#9aa5b1" opacity="0.18"/><rect x="558.00" y="310.00" width="60.00" height="34.00" rx="4.00" fill="#ffd8b1" opacity="0.27"/><rect x="624.00" y="310.00" width="60.00" height="34.00" rx="4.00" fill="#ff7a5c" opacity="0.36"/><rect x="690.00" y="310.00" width="60.00" height="34.00" rx="4.00" fill="#9aa5b1" opacity="0.45"/><rect x="756.00" y="310.00" width="60.00" height="34.00" rx="4.00" fill="#ffd8b1" opacity="0.53"/><rect x="822.00" y="310.00" width="60.00" height="34.00" rx="4.00" fill="#ff7a5c" opacity="0.62"/><rect x="888.00" y="310.00" width="60.00" height="34.00" rx="4.00" fill="#9aa5b1" opacity="0.71"/><rect x="954.00" y="310.00" width="60.00" height="34.00" rx="4.00" fill="#ffd8b1" opacity="0.18"/><rect x="1020.00" y="310.00" width="60.00" height="34.00" rx="4.00" fill="#ff7a5c" opacity="0.27"/><rect x="1086.00" y="310.00" width="60.00" height="34.00" rx="4.00" fill="#9aa5b1" opacity="0.36"/><rect x="96.00" y="350.00" width="60.00" height="34.00" rx="4.00" fill="#ffd8b1" opacity="0.45"/><rect x="162.00" y="350.00" width="60.00" height="34.00" rx="4.00" fill="#ff7a5c" opacity="0.53"/><rect x="228.00" y="350.00" width="60.00" height="34.00" rx="4.00" fill="#9aa5b1" opacity="0.62"/><rect x="294.00" y="350.00" width="60.00" height="34.00" rx="4.00" fill="#ffd8b1" opacity="0.71"/><rect x="360.00" y="350.00" width="60.00" height="34.00" rx="4.00" fill="#ff7a5c" opacity="0.18"/><rect x="426.00" y="350.00" width="60.00" height="34.00" rx="4.00" fill="#9aa5b1" opacity="0.27"/><rect x="492.00" y="350.00" width="60.00" height="34.00" rx="4.00" fill="#ffd8b1" opacity="0.36"/><rect x="558.00" y="350.00" width="60.00" height="34.00" rx="4.00" fill="#ff7a5c" opacity="0.45"/><rect x="624.00" y="350.00" width="60.00" height="34.00" rx="4.00" fill="#9aa5b1" opacity="0.53"/><rect x="690.00" y="350.00" width="60.00" height="34.00" rx="4.00" fill="#ffd8b1" opacity="0.62"/><rect x="756.00" y="350.00" width="60.00" height="34.00" rx="4.00" fill="#ff7a5c" opacity="0.71"/><rect x="822.00" y="350.00" width="60.00" height="34.00" rx="4.00" fill="#9aa5b1" opacity="0.18"/><rect x="888.00" y="350.00" width="60.00" height="34.00" rx="4.00" fill="#ffd8b1" opacity="0.27"/><rect x="954.00" y="350.00" width="60.00" height="34.00" rx="4.00" fill="#ff7a5c" opacity="0.36"/><rect x="1020.00" y="350.00" width="60.00" height="34.00" rx="4.00" fill="#9aa5b1" opacity="0.45"/><rect x="1086.00" y="350.00" width="60.00" height="34.00" rx="4.00" fill="#ffd8b1" opacity="0.53"/><rect x="96.00" y="390.00" width="60.00" height="34.00" rx="4.00" fill="#ff7a5c" opacity="0.62"/><rect x="162.00" y="390.00" width="60.00" height="34.00" rx="4.00" fill="#9aa5b1" opacity="0.71"/><rect x="228.00" y="390.00" width="60.00" height="34.00" rx="4.00" fill="#ffd8b1" opacity="0.18"/><rect x="294.00" y="390.00" width="60.00" height="34.00" rx="4.00" fill="#ff7a5c" opacity="0.27"/><rect x="360.00" y="390.00" width="60.00" height="34.00" rx="4.00" fill="#9aa5b1" opacity="0.36"/><rect x="426.00" y="390.00" width="60.00" height="34.00" rx="4.00" fill="#ffd8b1" opacity="0.45"/><rect x="492.00" y="390.00" width="60.00" height="34.00" rx="4.00" fill="#ff7a5c" opacity="0.53"/><rect x="558.00" y="390.00" width="60.00" height="34.00" rx="4.00" fill="#9aa5b1" opacity="0.62"/><rect x="624.00" y="390.00" width="60.00" height="34.00" rx="4.00" fill="#ffd8b1" opacity="0.71"/><rect x="690.00" y="390.00" width="60.00" height="34.00" rx="4.00" fill="#ff7a5c" opacity="0.18"/><rect x="756.00" y="390.00" width="60.00" height="34.00" rx="4.00" fill="#9aa5b1" opacity="0.27"/><rect x="822.00" y="390.00" width="60.00" height="34.00" rx="4.00" fill="#ffd8b1" opacity="0.36"/><rect x="888.00" y="390.00" width="60.00" height="34.00" rx="4.00" fill="#ff7a5c" opacity="0.45"/><rect x="954.00" y="390.00" width="60.00" height="34.00" rx="4.00" fill="#9aa5b1" opacity="0.53"/><rect x="1020.00" y="390.00" width="60.00" height="34.00" rx="4.00" fill="#ffd8b1" opacity="0.62"/><rect x="1086.00" y="390.00" width="60.00" height="34.00" rx="4.00" fill="#ff7a5c" opacity="0.71"/><rect x="96.00" y="430.00" width="60.00" height="34.00" rx="4.00" fill="#9aa5b1" opacity="0.18"/><rect x="162.00" y="430.00" width="60.00" height="34.00" rx="4.00" fill="#ffd8b1" opacity="0.27"/><rect x="228.00" y="430.00" width="60.00" height="34.00" rx="4.00" fill="#ff7a5c" opacity="0.36"/><rect x="294.00" y="430.00" width="60.00" height="34.00" rx="4.00" fill="#9aa5b1" opacity="0.45"/><rect x="360.00" y="430.00" width="60.00" height="34.00" rx="4.00" fill="#ffd8b1" opacity="0.53"/><rect x="426.00" y="430.00" width="60.00" height="34.00" rx="4.00" fill="#ff7a5c" opacity="0.62"/><rect x="492.00" y="430.00" width="60.00" height="34.00" rx="4.00" fill="#9aa5b1" opacity="0.71"/><rect x="558.00" y="430.00" width="60.00" height="34.00" rx="4.00" fill="#ffd8b1" opacity="0.18"/><rect x="624.00" y="430.00" width="60.00" height="34.00" rx="4.00" fill="#ff7a5c" opacity="0.27"/><rect x="690.00" y="430.00" width="60.00" height="34.00" rx="4.00" fill="#9aa5b1" opacity="0.36"/><rect x="756.00" y="430.00" width="60.00" height="34.00" rx="4.00" fill="#ffd8b1" opacity="0.45"/><rect x="822.00" y="430.00" width="60.00" height="34.00" rx="4.00" fill="#ff7a5c" opacity="0.53"/><rect x="888.00" y="430.00" width="60.00" height="34.00" rx="4.00" fill="#9aa5b1" opacity="0.62"/><rect x="954.00" y="430.00" width="60.00" height="34.00" rx="4.00" fill="#ffd8b1" opacity="0.71"/><rect x="1020.00" y="430.00" width="60.00" height="34.00" rx="4.00" fill="#ff7a5c" opacity="0.18"/><rect x="1086.00" y="430.00" width="60.00" height="34.00" rx="4.00" fill="#9aa5b1" opacity="0.27"/><rect x="96.00" y="470.00" width="60.00" height="34.00" rx="4.00" fill="#ffd8b1" opacity="0.36"/><rect x="162.00" y="470.00" width="60.00" height="34.00" rx="4.00" fill="#ff7a5c" opacity="0.45"/><rect x="228.00" y="470.00" width="60.00" height="34.00" rx="4.00" fill="#9aa5b1" opacity="0.53"/><rect x="294.00" y="470.00" width="60.00" height="34.00" rx="4.00" fill="#ffd8b1" opacity="0.62"/><rect x="360.00" y="470.00" width="60.00" height="34.00" rx="4.00" fill="#ff7a5c" opacity="0.71"/><rect x="426.00" y="470.00" width="60.00" height="34.00" rx="4.00" fill="#9aa5b1" opacity="0.18"/><rect x="492.00" y="470.00" width="60.00" height="34.00" rx="4.00" fill="#ffd8b1" opacity="0.27"/><rect x="558.00" y="470.00" width="60.00" height="34.00" rx="4.00" fill="#ff7a5c" opacity="0.36"/><rect x="624.00" y="470.00" width="60.00" height="34.00" rx="4.00" fill="#9aa5b1" opacity="0.45"/><rect x="690.00" y="470.00" width="60.00" height="34.00" rx="4.00" fill="#ffd8b1" opacity="0.53"/><rect x="756.00" y="470.00" width="60.00" height="34.00" rx="4.00" fill="#ff7a5c" opacity="0.62"/><rect x="822.00" y="470.00" width="60.00" height="34.00" rx="4.00" fill="#9aa5b1" opacity="0.71"/><rect x="888.00" y="470.00" width="60.00" height="34.00" rx="4.00" fill="#ffd8b1" opacity="0.18"/><rect x="954.00" y="470.00" width="60.00" height="34.00" rx="4.00" fill="#ff7a5c" opacity="0.27"/><rect x="1020.00" y="470.00" width="60.00" height="34.00" rx="4.00" fill="#9aa5b1" opacity="0.36"/><rect x="1086.00" y="470.00" width="60.00" height="34.00" rx="4.00" fill="#ffd8b1" opacity="0.45"/><text x="96" y="122" font-family="ui-monospace,Menlo,monospace" font-size="15" fill="rgba(241,243,245,0.500)">ordered key space &#183; probe walks the index</text><text x="96" y="122" font-family="ui-monospace,Menlo,monospace" font-size="15" fill="rgba(241,243,245,0.500)">Design Infrastructure</text>
</svg>